<svg width="12" height="13" viewBox="0 0 12 13" fill="none" xmlns="http://www.w3.org/2000/svg">
<path d="M11.6106 0.547852H7.71606C7.55634 0.547852 7.42686 0.677325 7.42686 0.837048V1.38724C7.42686 1.54697 7.55634 1.67644 7.71606 1.67644H9.97313L6.75087 4.8987C6.63794 5.01163 6.63794 5.19475 6.75087 5.30768L7.13992 5.69674C7.1964 5.75322 7.27041 5.78144 7.34439 5.78144C7.41842 5.78144 7.49243 5.75319 7.54888 5.69674L10.7712 2.47445V4.73154C10.7712 4.89127 10.9007 5.02074 11.0604 5.02074H11.6106C11.7703 5.02074 11.8998 4.89127 11.8998 4.73154V0.837048C11.8998 0.677325 11.7703 0.547852 11.6106 0.547852Z" fill="#666666"/>
<path d="M2.17275 1.67644H4.42982C4.58954 1.67644 4.71901 1.54697 4.71901 1.38725V0.837048C4.71901 0.677325 4.58954 0.547852 4.42982 0.547852H0.535321C0.375598 0.547852 0.246124 0.677325 0.246124 0.837048V4.73154C0.246124 4.89127 0.375598 5.02074 0.535321 5.02074H1.08549C1.24521 5.02074 1.37469 4.89127 1.37469 4.73154V2.47445L4.59697 5.69671C4.65342 5.75319 4.72746 5.78142 4.80146 5.78142C4.87547 5.78142 4.9495 5.75316 5.00595 5.69671L5.39501 5.30765C5.50794 5.19472 5.50794 5.0116 5.39501 4.89867L2.17275 1.67644Z" fill="#666666"/>
<path d="M11.6106 7.61516H11.0604C10.9007 7.61516 10.7712 7.74466 10.7712 7.90436V10.1614L7.54891 6.93919C7.43603 6.82626 7.25286 6.82626 7.13992 6.93919L6.75087 7.32825C6.63794 7.44115 6.63794 7.62427 6.75087 7.73723L9.97313 10.9595H7.71606C7.55634 10.9595 7.42686 11.089 7.42686 11.2487V11.7988C7.42686 11.9585 7.55634 12.088 7.71606 12.088H11.6106C11.7703 12.088 11.8998 11.9585 11.8998 11.7988V7.90436C11.8998 7.74463 11.7703 7.61516 11.6106 7.61516Z" fill="#666666"/>
<path d="M5.00678 6.93919C4.89385 6.82626 4.7107 6.82626 4.5978 6.93919L1.37551 10.1615V7.90438C1.37551 7.74466 1.24604 7.61519 1.08631 7.61519H0.536145C0.376422 7.61519 0.246948 7.74466 0.246948 7.90438V11.7989C0.246948 11.9586 0.376422 12.0881 0.536145 12.0881H4.43064C4.59036 12.0881 4.71984 11.9586 4.71984 11.7989V11.2487C4.71984 11.089 4.59036 10.9595 4.43064 10.9595H2.17358L5.39584 7.73726C5.50877 7.62436 5.50877 7.44124 5.39584 7.32825L5.00678 6.93919Z" fill="#666666"/>
</svg>
